# xmcd
#
# Track frame offsets: 
#        150
#        17685
#        34241
#        48511
#        66073
#        84464
#        104377
#        117947
#        137949
#        153580
#
# Disc length: 2792 seconds
#
# Revision: 0
# Processed by: cddbd v1.5.2PL0 Copyright (c) Steve Scherf et al.
# Submitted via: ExactAudioCopyFreeDBPlugin 1.0
#
DISCID=840ae60a
DTITLE=Monkey Men - Wo ist das Glück?
DYEAR=2010
DGENRE=Punk Rock
TTITLE0=Wo Ist Das Glück
TTITLE1=500 Leute
TTITLE2=Verstehen Sie Spaß?
TTITLE3=Das Leben
TTITLE4=Dein Pech
TTITLE5=Eure Stimme
TTITLE6=Vorbei
TTITLE7=Nur Geträumt
TTITLE8=Kurz Vor 12
TTITLE9=8 Promille
EXTD=
EXTT0=
EXTT1=
EXTT2=
EXTT3=
EXTT4=
EXTT5=
EXTT6=
EXTT7=
EXTT8=
EXTT9=
PLAYORDER=
